<svg xmlns="http://www.w3.org/2000/svg" xmlns:xlink="http://www.w3.org/1999/xlink" width="1080" zoomAndPan="magnify" viewBox="0 0 810 809.999993" height="1080" preserveAspectRatio="xMidYMid meet" version="1.0"><defs><g/><clipPath id="1e44132554"><rect x="0" width="679" y="0" height="583"/></clipPath><clipPath id="48c3232c56"><rect x="0" width="663" y="0" height="496"/></clipPath></defs><g transform="matrix(1, 0, 0, 1, 76, 0.000000000000039746)"><g clip-path="url(#1e44132554)"><g fill="#212121" fill-opacity="1"><g transform="translate(0.766099, 382.249466)"><g><path d="M 20.421875 0 L 20.421875 -114.5 L 24.015625 -114.5 L 24.015625 -105.28125 C 24.015625 -92.476562 27.21875 -79.867188 33.625 -67.453125 C 40.03125 -55.046875 48.703125 -43.90625 59.640625 -34.03125 C 70.585938 -24.15625 82.929688 -16.28125 96.671875 -10.40625 C 110.421875 -4.53125 124.632812 -1.59375 139.3125 -1.59375 C 158.789062 -1.59375 174.332031 -4.128906 185.9375 -9.203125 C 197.550781 -14.273438 206.09375 -21.082031 211.5625 -29.625 C 217.039062 -38.164062 219.914062 -47.375 220.1875 -57.25 C 220.445312 -66.320312 217.773438 -74.660156 212.171875 -82.265625 C 206.566406 -89.867188 199.023438 -97.070312 189.546875 -103.875 C 180.078125 -110.6875 169.671875 -117.226562 158.328125 -123.5 C 146.984375 -129.769531 135.773438 -136.039062 124.703125 -142.3125 C 113.628906 -148.582031 103.6875 -154.921875 94.875 -161.328125 C 74.863281 -176.273438 59.382812 -189.882812 48.4375 -202.15625 C 37.5 -214.4375 31.023438 -226.710938 29.015625 -238.984375 C 27.015625 -251.265625 29.351562 -265.015625 36.03125 -280.234375 C 42.164062 -294.109375 51.035156 -306.113281 62.640625 -316.25 C 74.253906 -326.394531 87.535156 -334.203125 102.484375 -339.671875 C 117.429688 -345.148438 132.910156 -347.890625 148.921875 -347.890625 C 156.128906 -347.890625 163.203125 -347.285156 170.140625 -346.078125 C 177.078125 -344.878906 183.613281 -342.8125 189.75 -339.875 C 193.21875 -338.28125 197.488281 -336.414062 202.5625 -334.28125 C 207.632812 -332.144531 212.707031 -330.472656 217.78125 -329.265625 C 222.851562 -328.066406 227.1875 -327.800781 230.78125 -328.46875 C 234.382812 -329.132812 236.320312 -331.335938 236.59375 -335.078125 L 236.59375 -336.671875 L 240.203125 -336.671875 L 240.203125 -241.796875 L 236.59375 -241.796875 C 236.59375 -241.796875 236.390625 -244.128906 235.984375 -248.796875 C 235.585938 -253.472656 234.789062 -259.410156 233.59375 -266.609375 C 232.394531 -273.816406 230.394531 -281.554688 227.59375 -289.828125 C 224.789062 -298.109375 221.050781 -305.984375 216.375 -313.453125 C 211.707031 -320.929688 205.769531 -326.9375 198.5625 -331.46875 C 191.625 -335.476562 183.953125 -338.613281 175.546875 -340.875 C 167.140625 -343.144531 158.265625 -344.28125 148.921875 -344.28125 C 133.441406 -344.28125 121.164062 -341.941406 112.09375 -337.265625 C 103.019531 -332.597656 96.613281 -326.257812 92.875 -318.25 C 89.132812 -310.25 87.265625 -301.175781 87.265625 -291.03125 C 87.265625 -277.425781 91.9375 -265.351562 101.28125 -254.8125 C 110.625 -244.269531 124.90625 -233.125 144.125 -221.375 C 160.664062 -211.238281 176.273438 -202.300781 190.953125 -194.5625 C 205.628906 -186.820312 218.570312 -178.8125 229.78125 -170.53125 C 241 -162.257812 249.875 -152.382812 256.40625 -140.90625 C 262.945312 -129.4375 266.21875 -114.894531 266.21875 -97.28125 C 266.21875 -85.800781 263.546875 -73.585938 258.203125 -60.640625 C 252.867188 -47.703125 246.195312 -37.226562 238.1875 -29.21875 C 229.65625 -20.675781 219.113281 -13.9375 206.5625 -9 C 194.019531 -4.0625 180.476562 -0.863281 165.9375 0.59375 C 151.394531 2.0625 136.847656 1.925781 122.296875 0.1875 C 107.753906 -1.539062 94.078125 -4.804688 81.265625 -9.609375 C 67.648438 -14.941406 56.972656 -18.273438 49.234375 -19.609375 C 41.492188 -20.953125 35.820312 -20.890625 32.21875 -19.421875 C 28.625 -17.953125 26.359375 -15.546875 25.421875 -12.203125 C 24.484375 -8.867188 24.015625 -4.9375 24.015625 -0.40625 L 24.015625 0 Z M 20.421875 0 "/></g></g></g><g fill="#212121" fill-opacity="1"><g transform="translate(278.996904, 382.249466)"><g><path d="M 194.953125 0 C 171.734375 0 149.914062 -4.203125 129.5 -12.609375 C 109.082031 -21.015625 90.867188 -32.820312 74.859375 -48.03125 C 58.847656 -63.25 46.035156 -80.863281 36.421875 -100.875 C 26.816406 -120.894531 21.347656 -142.515625 20.015625 -165.734375 L 20.015625 -185.75 C 22.421875 -229.519531 39.898438 -267.816406 72.453125 -300.640625 C 89.003906 -316.660156 107.820312 -329.003906 128.90625 -337.671875 C 149.988281 -346.347656 172.003906 -350.6875 194.953125 -350.6875 C 215.242188 -350.6875 234.992188 -347.21875 254.203125 -340.28125 C 273.148438 -334.675781 286.960938 -332.539062 295.640625 -333.875 C 304.316406 -335.207031 308.921875 -339.609375 309.453125 -347.078125 L 313.0625 -347.078125 L 313.0625 -252.609375 L 309.453125 -252.609375 C 308.921875 -273.960938 302.847656 -291.644531 291.234375 -305.65625 C 279.628906 -319.664062 262.882812 -330.40625 241 -337.875 C 230.59375 -341.082031 221.25 -343.21875 212.96875 -344.28125 C 204.695312 -345.351562 198.691406 -345.890625 194.953125 -345.890625 C 189.890625 -345.890625 183.488281 -344.820312 175.75 -342.6875 C 168.007812 -340.550781 159.867188 -336.34375 151.328125 -330.0625 C 142.785156 -323.789062 134.707031 -314.453125 127.09375 -302.046875 C 119.488281 -289.640625 113.285156 -273.160156 108.484375 -252.609375 C 103.679688 -232.054688 101.28125 -206.300781 101.28125 -175.34375 C 101.28125 -144.65625 103.679688 -118.96875 108.484375 -98.28125 C 113.285156 -77.59375 119.488281 -61.046875 127.09375 -48.640625 C 134.707031 -36.234375 142.785156 -26.890625 151.328125 -20.609375 C 159.867188 -14.335938 168.007812 -10.132812 175.75 -8 C 183.488281 -5.863281 189.890625 -4.796875 194.953125 -4.796875 C 202.960938 -4.796875 212.503906 -6 223.578125 -8.40625 C 234.660156 -10.8125 243.9375 -13.613281 251.40625 -16.8125 L 251.40625 -110.890625 C 251.132812 -124.234375 246.796875 -134.375 238.390625 -141.3125 C 229.984375 -148.25 219.242188 -151.71875 206.171875 -151.71875 L 206.171875 -155.328125 L 378.703125 -155.328125 L 378.703125 -151.71875 C 364.828125 -151.71875 353.882812 -148.113281 345.875 -140.90625 C 337.875 -133.707031 333.609375 -123.835938 333.078125 -111.296875 L 333.078125 -3.609375 L 329.46875 -3.609375 C 329.195312 -8.671875 325.257812 -12.269531 317.65625 -14.40625 C 310.050781 -16.539062 300.578125 -17.273438 289.234375 -16.609375 C 277.890625 -15.941406 266.210938 -13.875 254.203125 -10.40625 C 234.992188 -3.46875 215.242188 0 194.953125 0 Z M 194.953125 0 "/></g></g></g></g></g><g transform="matrix(1, 0, 0, 1, 84, 314)"><g clip-path="url(#48c3232c56)"><g fill="#212121" fill-opacity="1"><g transform="translate(0.776376, 444.785747)"><g><path d="M 81.265625 -9.609375 C 67.648438 -14.941406 56.972656 -18.273438 49.234375 -19.609375 C 41.492188 -20.953125 35.820312 -20.890625 32.21875 -19.421875 C 28.625 -17.953125 26.359375 -15.546875 25.421875 -12.203125 C 24.484375 -8.867188 24.015625 -4.9375 24.015625 -0.40625 L 24.015625 0 L 20.421875 0 L 20.421875 -114.5 L 24.015625 -114.5 L 24.015625 -105.28125 C 24.015625 -92.476562 27.21875 -79.867188 33.625 -67.453125 C 40.03125 -55.046875 48.703125 -43.90625 59.640625 -34.03125 C 70.585938 -24.15625 82.929688 -16.28125 96.671875 -10.40625 C 110.421875 -4.53125 124.632812 -1.59375 139.3125 -1.59375 C 158.789062 -1.59375 174.332031 -4.128906 185.9375 -9.203125 C 197.550781 -14.273438 206.09375 -21.082031 211.5625 -29.625 C 217.039062 -38.164062 219.914062 -47.375 220.1875 -57.25 C 220.445312 -66.320312 217.773438 -74.660156 212.171875 -82.265625 C 206.566406 -89.867188 199.023438 -97.070312 189.546875 -103.875 C 180.078125 -110.6875 169.671875 -117.226562 158.328125 -123.5 C 146.984375 -129.769531 135.773438 -136.039062 124.703125 -142.3125 C 113.628906 -148.582031 103.6875 -154.921875 94.875 -161.328125 C 74.863281 -176.273438 59.382812 -189.882812 48.4375 -202.15625 C 37.5 -214.4375 31.023438 -226.710938 29.015625 -238.984375 C 27.015625 -251.265625 29.351562 -265.015625 36.03125 -280.234375 C 42.164062 -294.109375 51.035156 -306.113281 62.640625 -316.25 C 74.253906 -326.394531 87.535156 -334.203125 102.484375 -339.671875 C 117.429688 -345.148438 132.910156 -347.890625 148.921875 -347.890625 C 156.128906 -347.890625 163.203125 -347.285156 170.140625 -346.078125 C 177.078125 -344.878906 183.613281 -342.8125 189.75 -339.875 C 193.21875 -338.28125 197.488281 -336.414062 202.5625 -334.28125 C 207.632812 -332.144531 212.707031 -330.472656 217.78125 -329.265625 C 222.851562 -328.066406 227.1875 -327.800781 230.78125 -328.46875 C 234.382812 -329.132812 236.320312 -331.335938 236.59375 -335.078125 L 236.59375 -336.671875 L 240.203125 -336.671875 L 240.203125 -241.796875 L 236.59375 -241.796875 C 236.59375 -241.796875 236.390625 -244.128906 235.984375 -248.796875 C 235.585938 -253.472656 234.789062 -259.410156 233.59375 -266.609375 C 232.394531 -273.816406 230.394531 -281.554688 227.59375 -289.828125 C 224.789062 -298.109375 221.050781 -305.984375 216.375 -313.453125 C 211.707031 -320.929688 205.769531 -326.9375 198.5625 -331.46875 C 191.625 -335.476562 183.953125 -338.613281 175.546875 -340.875 C 167.140625 -343.144531 158.265625 -344.28125 148.921875 -344.28125 C 133.441406 -344.28125 121.164062 -341.941406 112.09375 -337.265625 C 103.019531 -332.597656 96.613281 -326.257812 92.875 -318.25 C 89.132812 -310.25 87.265625 -301.175781 87.265625 -291.03125 C 87.265625 -277.425781 91.9375 -265.351562 101.28125 -254.8125 C 110.625 -244.269531 124.90625 -233.125 144.125 -221.375 C 160.664062 -211.238281 176.273438 -202.300781 190.953125 -194.5625 C 205.628906 -186.820312 218.570312 -178.8125 229.78125 -170.53125 C 241 -162.257812 249.875 -152.382812 256.40625 -140.90625 C 262.945312 -129.4375 266.21875 -114.894531 266.21875 -97.28125 C 266.21875 -85.800781 263.546875 -73.585938 258.203125 -60.640625 C 252.867188 -47.703125 246.195312 -37.226562 238.1875 -29.21875 C 229.65625 -20.675781 219.113281 -13.9375 206.5625 -9 C 194.019531 -4.0625 180.476562 -0.863281 165.9375 0.59375 C 151.394531 2.0625 136.847656 1.925781 122.296875 0.1875 C 107.753906 -1.539062 94.078125 -4.804688 81.265625 -9.609375 Z M 81.265625 -9.609375 "/></g></g></g><g fill="#212121" fill-opacity="1"><g transform="translate(279.00718, 444.785747)"><g><path d="M 102.890625 -3.609375 C 117.566406 -3.609375 129.109375 -7.410156 137.515625 -15.015625 C 145.921875 -22.617188 150.125 -32.957031 150.125 -46.03125 L 150.125 -341.484375 L 146.125 -341.484375 C 126.632812 -341.484375 110.082031 -339.410156 96.46875 -335.265625 C 82.863281 -331.128906 71.585938 -325.789062 62.640625 -319.25 C 53.703125 -312.71875 46.566406 -305.847656 41.234375 -298.640625 C 35.898438 -291.441406 31.960938 -284.503906 29.421875 -277.828125 C 26.890625 -271.148438 25.222656 -265.8125 24.421875 -261.8125 L 23.21875 -254.609375 L 20.015625 -256.203125 L 33.625 -345.078125 L 349.09375 -345.078125 L 362.703125 -256.203125 L 359.5 -254.609375 L 358.296875 -261.8125 C 357.492188 -265.8125 355.820312 -271.148438 353.28125 -277.828125 C 350.75 -284.503906 346.8125 -291.441406 341.46875 -298.640625 C 336.132812 -305.847656 329 -312.71875 320.0625 -319.25 C 311.125 -325.789062 299.847656 -331.128906 286.234375 -335.265625 C 272.617188 -339.410156 256.070312 -341.484375 236.59375 -341.484375 L 232.984375 -341.484375 L 232.984375 -46.03125 C 232.984375 -32.957031 237.1875 -22.617188 245.59375 -15.015625 C 254.007812 -7.410156 265.554688 -3.609375 280.234375 -3.609375 L 280.234375 0 L 102.890625 0 Z M 102.890625 -3.609375 "/></g></g></g></g></g></svg>